<svg xmlns="http://www.w3.org/2000/svg" width="620" height="296" viewBox="0 0 620 296" role="img" aria-label="muhammedozel son 30 gün katkı grafiği">
  <defs>
    <clipPath id="card"><rect x="0.5" y="0.5" width="619" height="295" rx="10"/></clipPath>
    <clipPath id="type1"><rect x="20" y="47" width="0" height="21"><animate attributeName="width" values="4.0;11.9;19.8;27.7;35.6;43.5;51.4;59.3;67.2;75.1;83.0;90.9;98.8;106.7;114.6;122.5;130.4;138.3;146.2;154.1;162.0;169.9;177.8;185.7;193.6;201.5" calcMode="discrete" begin="0.40s" dur="1.13s" fill="freeze"/></rect></clipPath>
  </defs>
  <g clip-path="url(#card)">
    <rect width="620" height="296" fill="#0d1117"/>
    <rect width="620" height="34" fill="#111823"/>
    <line x1="0" y1="34" x2="620" y2="34" stroke="#1c2530" stroke-width="1"/>
    <circle cx="25" cy="17" r="5.5" fill="#ff5f56"/><circle cx="43" cy="17" r="5.5" fill="#ffbd2e"/><circle cx="61" cy="17" r="5.5" fill="#27c93f"/>
    <text x="78" y="21" fill="#4d5a6a" font-size="11" font-family="Menlo, Consolas, 'DejaVu Sans Mono', 'Liberation Mono', monospace">muhammedozel@github ~ activity</text>
  </g>
  <rect x="0.5" y="0.5" width="619" height="295" rx="10" fill="none" stroke="#1c2530" stroke-width="1"/>
  <g font-family="Menlo, Consolas, 'DejaVu Sans Mono', 'Liberation Mono', monospace" font-size="13">
    <g clip-path="url(#type1)"><text x="20" y="63" xml:space="preserve"><tspan fill="#22d3ee">$ </tspan><tspan fill="#22d3ee">git activity --last 30d</tspan></text></g>
    <g>
        <line x1="22" y1="166.0" x2="598" y2="166.0" stroke="#1c2530" stroke-width="1" stroke-dasharray="3 5" opacity="0.6"/>
        <line x1="22" y1="141.0" x2="598" y2="141.0" stroke="#1c2530" stroke-width="1" stroke-dasharray="3 5" opacity="0.6"/>
        <line x1="22" y1="116.0" x2="598" y2="116.0" stroke="#1c2530" stroke-width="1" stroke-dasharray="3 5" opacity="0.6"/>
        <line x1="22" y1="191.0" x2="598" y2="191.0" stroke="#1c2530" stroke-width="1"/>
        <path d="M22.0 187.0 L41.9 186.6 L61.7 188.4 L81.6 181.1 L101.4 187.7 L121.3 156.0 L141.2 156.7 L161.0 161.8 L180.9 166.5 L200.8 91.0 L220.6 100.1 L240.5 187.4 L260.3 189.5 L280.2 147.9 L300.1 175.3 L319.9 189.9 L339.8 188.8 L359.7 163.6 L379.5 183.3 L399.4 181.5 L419.2 181.9 L439.1 187.7 L459.0 186.6 L478.8 182.6 L498.7 157.4 L518.6 185.5 L538.4 183.3 L558.3 187.0 L578.1 189.9 L598.0 188.8 L598.0 191.0 L22.0 191.0 Z" fill="#0891B2" opacity="0">
          <animate attributeName="opacity" from="0" to="0.16" begin="2.57s" dur="0.5s" fill="freeze"/>
        </path>
        <path d="M22.0 187.0 L41.9 186.6 L61.7 188.4 L81.6 181.1 L101.4 187.7 L121.3 156.0 L141.2 156.7 L161.0 161.8 L180.9 166.5 L200.8 91.0 L220.6 100.1 L240.5 187.4 L260.3 189.5 L280.2 147.9 L300.1 175.3 L319.9 189.9 L339.8 188.8 L359.7 163.6 L379.5 183.3 L399.4 181.5 L419.2 181.9 L439.1 187.7 L459.0 186.6 L478.8 182.6 L498.7 157.4 L518.6 185.5 L538.4 183.3 L558.3 187.0 L578.1 189.9 L598.0 188.8" fill="none" stroke="#22d3ee" stroke-width="2" stroke-linejoin="round" stroke-linecap="round" stroke-dasharray="821" stroke-dashoffset="821">
          <animate attributeName="stroke-dashoffset" from="821" to="0" begin="1.67s" dur="1.4s" fill="freeze"/>
        </path>
        <circle cx="200.8" cy="91.0" r="3.5" fill="#22d3ee" opacity="0">
          <animate attributeName="opacity" from="0" to="1" begin="3.07s" dur="0.3s" fill="freeze"/>
        </circle>
        <text x="200.8" y="83.0" fill="#e6edf3" font-size="11" font-weight="600" text-anchor="middle" opacity="0">274<animate attributeName="opacity" from="0" to="1" begin="3.07s" dur="0.3s" fill="freeze"/></text>
        <text x="22.0" y="210.0" fill="#6e7681" font-size="11" text-anchor="start">Jun 21</text>
        <text x="319.9" y="210.0" fill="#6e7681" font-size="11" text-anchor="middle">Jul 6</text>
        <text x="598.0" y="210.0" fill="#6e7681" font-size="11" text-anchor="end">Jul 20</text>
      </g>
    <g opacity="0"><text x="20" y="234" xml:space="preserve"><tspan fill="#8b949e">max: </tspan><tspan fill="#e6edf3" font-weight="600">274/day</tspan><tspan fill="#8b949e">   </tspan><tspan fill="#8b949e">avg: </tspan><tspan fill="#e6edf3" font-weight="600">48.3/day</tspan><tspan fill="#8b949e">   </tspan><tspan fill="#8b949e">active: </tspan><tspan fill="#e6edf3" font-weight="600">30/30 days</tspan></text><animate attributeName="opacity" from="0" to="1" begin="3.47s" dur="0.25s" fill="freeze"/></g>
    <g opacity="0"><text x="20" y="276" xml:space="preserve"><tspan fill="#22d3ee">$ </tspan></text><animate attributeName="opacity" from="0" to="1" begin="3.59s" dur="0.1s" fill="freeze"/></g>
    <rect x="35.8" y="264" width="7.9" height="15" fill="#22d3ee" opacity="0"><animate attributeName="opacity" values="1;0" keyTimes="0;0.5" calcMode="discrete" begin="3.69s" dur="1.06s" repeatCount="indefinite"/></rect>
  </g>
</svg>
