<svg xmlns="http://www.w3.org/2000/svg" width="620" height="296" viewBox="0 0 620 296" role="img" aria-label="muhammedozel son 30 gün katkı grafiği">
  <defs>
    <clipPath id="card"><rect x="0.5" y="0.5" width="619" height="295" rx="10"/></clipPath>
    <clipPath id="type1"><rect x="20" y="47" width="0" height="21"><animate attributeName="width" values="4.0;11.9;19.8;27.7;35.6;43.5;51.4;59.3;67.2;75.1;83.0;90.9;98.8;106.7;114.6;122.5;130.4;138.3;146.2;154.1;162.0;169.9;177.8;185.7;193.6;201.5" calcMode="discrete" begin="0.40s" dur="1.13s" fill="freeze"/></rect></clipPath>
  </defs>
  <g clip-path="url(#card)">
    <rect width="620" height="296" fill="#0d1117"/>
    <rect width="620" height="34" fill="#111823"/>
    <line x1="0" y1="34" x2="620" y2="34" stroke="#1c2530" stroke-width="1"/>
    <circle cx="25" cy="17" r="5.5" fill="#ff5f56"/><circle cx="43" cy="17" r="5.5" fill="#ffbd2e"/><circle cx="61" cy="17" r="5.5" fill="#27c93f"/>
    <text x="78" y="21" fill="#4d5a6a" font-size="11" font-family="Menlo, Consolas, 'DejaVu Sans Mono', 'Liberation Mono', monospace">muhammedozel@github ~ activity</text>
  </g>
  <rect x="0.5" y="0.5" width="619" height="295" rx="10" fill="none" stroke="#1c2530" stroke-width="1"/>
  <g font-family="Menlo, Consolas, 'DejaVu Sans Mono', 'Liberation Mono', monospace" font-size="13">
    <g clip-path="url(#type1)"><text x="20" y="63" xml:space="preserve"><tspan fill="#22d3ee">$ </tspan><tspan fill="#22d3ee">git activity --last 30d</tspan></text></g>
    <g>
        <line x1="22" y1="166.0" x2="598" y2="166.0" stroke="#1c2530" stroke-width="1" stroke-dasharray="3 5" opacity="0.6"/>
        <line x1="22" y1="141.0" x2="598" y2="141.0" stroke="#1c2530" stroke-width="1" stroke-dasharray="3 5" opacity="0.6"/>
        <line x1="22" y1="116.0" x2="598" y2="116.0" stroke="#1c2530" stroke-width="1" stroke-dasharray="3 5" opacity="0.6"/>
        <line x1="22" y1="191.0" x2="598" y2="191.0" stroke="#1c2530" stroke-width="1"/>
        <path d="M22.0 175.9 L41.9 190.4 L61.7 185.3 L81.6 172.8 L101.4 184.1 L121.3 147.6 L141.2 172.8 L161.0 179.1 L180.9 182.2 L200.8 179.7 L220.6 187.9 L240.5 183.5 L260.3 185.3 L280.2 183.5 L300.1 145.7 L319.9 172.8 L339.8 160.2 L359.7 174.0 L379.5 189.1 L399.4 182.8 L419.2 180.9 L439.1 157.0 L459.0 149.5 L478.8 92.3 L498.7 91.0 L518.6 134.4 L538.4 186.0 L558.3 186.0 L578.1 188.5 L598.0 191.0 L598.0 191.0 L22.0 191.0 Z" fill="#0891B2" opacity="0">
          <animate attributeName="opacity" from="0" to="0.16" begin="2.57s" dur="0.5s" fill="freeze"/>
        </path>
        <path d="M22.0 175.9 L41.9 190.4 L61.7 185.3 L81.6 172.8 L101.4 184.1 L121.3 147.6 L141.2 172.8 L161.0 179.1 L180.9 182.2 L200.8 179.7 L220.6 187.9 L240.5 183.5 L260.3 185.3 L280.2 183.5 L300.1 145.7 L319.9 172.8 L339.8 160.2 L359.7 174.0 L379.5 189.1 L399.4 182.8 L419.2 180.9 L439.1 157.0 L459.0 149.5 L478.8 92.3 L498.7 91.0 L518.6 134.4 L538.4 186.0 L558.3 186.0 L578.1 188.5 L598.0 191.0" fill="none" stroke="#22d3ee" stroke-width="2" stroke-linejoin="round" stroke-linecap="round" stroke-dasharray="793" stroke-dashoffset="793">
          <animate attributeName="stroke-dashoffset" from="793" to="0" begin="1.67s" dur="1.4s" fill="freeze"/>
        </path>
        <circle cx="498.7" cy="91.0" r="3.5" fill="#22d3ee" opacity="0">
          <animate attributeName="opacity" from="0" to="1" begin="3.07s" dur="0.3s" fill="freeze"/>
        </circle>
        <g opacity="0">
          <text x="22.0" y="167.9" fill="#8b949e" font-size="8.5" text-anchor="middle">24</text>
          <text x="41.9" y="171.4" fill="#8b949e" font-size="8.5" text-anchor="middle">1</text>
          <text x="61.7" y="177.3" fill="#8b949e" font-size="8.5" text-anchor="middle">9</text>
          <text x="81.6" y="153.8" fill="#8b949e" font-size="8.5" text-anchor="middle">29</text>
          <text x="101.4" y="176.1" fill="#8b949e" font-size="8.5" text-anchor="middle">11</text>
          <text x="121.3" y="128.6" fill="#8b949e" font-size="8.5" text-anchor="middle">69</text>
          <text x="141.2" y="164.8" fill="#8b949e" font-size="8.5" text-anchor="middle">29</text>
          <text x="161.0" y="160.1" fill="#8b949e" font-size="8.5" text-anchor="middle">19</text>
          <text x="180.9" y="174.2" fill="#8b949e" font-size="8.5" text-anchor="middle">14</text>
          <text x="200.8" y="160.7" fill="#8b949e" font-size="8.5" text-anchor="middle">18</text>
          <text x="220.6" y="179.9" fill="#8b949e" font-size="8.5" text-anchor="middle">5</text>
          <text x="240.5" y="164.5" fill="#8b949e" font-size="8.5" text-anchor="middle">12</text>
          <text x="260.3" y="177.3" fill="#8b949e" font-size="8.5" text-anchor="middle">9</text>
          <text x="280.2" y="164.5" fill="#8b949e" font-size="8.5" text-anchor="middle">12</text>
          <text x="300.1" y="137.7" fill="#8b949e" font-size="8.5" text-anchor="middle">72</text>
          <text x="319.9" y="153.8" fill="#8b949e" font-size="8.5" text-anchor="middle">29</text>
          <text x="339.8" y="152.2" fill="#8b949e" font-size="8.5" text-anchor="middle">49</text>
          <text x="359.7" y="155.0" fill="#8b949e" font-size="8.5" text-anchor="middle">27</text>
          <text x="379.5" y="181.1" fill="#8b949e" font-size="8.5" text-anchor="middle">3</text>
          <text x="399.4" y="163.8" fill="#8b949e" font-size="8.5" text-anchor="middle">13</text>
          <text x="419.2" y="172.9" fill="#8b949e" font-size="8.5" text-anchor="middle">16</text>
          <text x="439.1" y="138.0" fill="#8b949e" font-size="8.5" text-anchor="middle">54</text>
          <text x="459.0" y="141.5" fill="#8b949e" font-size="8.5" text-anchor="middle">66</text>
          <text x="478.8" y="78.0" fill="#8b949e" font-size="8.5" text-anchor="middle">157</text>
          <text x="498.7" y="83.0" fill="#8b949e" font-size="8.5" text-anchor="middle">159</text>
          <text x="518.6" y="115.4" fill="#8b949e" font-size="8.5" text-anchor="middle">90</text>
          <text x="538.4" y="178.0" fill="#8b949e" font-size="8.5" text-anchor="middle">8</text>
          <text x="558.3" y="167.0" fill="#8b949e" font-size="8.5" text-anchor="middle">8</text>
          <text x="578.1" y="180.5" fill="#8b949e" font-size="8.5" text-anchor="middle">4</text>
          <text x="598.0" y="172.0" fill="#8b949e" font-size="8.5" text-anchor="middle">0</text>
          <animate attributeName="opacity" from="0" to="1" begin="3.07s" dur="0.4s" fill="freeze"/>
        </g>
        <text x="22.0" y="210.0" fill="#6e7681" font-size="11" text-anchor="start">Jul 26</text>
        <text x="319.9" y="210.0" fill="#6e7681" font-size="11" text-anchor="middle">Aug 10</text>
        <text x="598.0" y="210.0" fill="#6e7681" font-size="11" text-anchor="end">Aug 24</text>
      </g>
    <g opacity="0"><text x="20" y="234" xml:space="preserve"><tspan fill="#8b949e">max: </tspan><tspan fill="#e6edf3" font-weight="600">159/day</tspan><tspan fill="#8b949e">   </tspan><tspan fill="#8b949e">avg: </tspan><tspan fill="#e6edf3" font-weight="600">33.9/day</tspan><tspan fill="#8b949e">   </tspan><tspan fill="#8b949e">active: </tspan><tspan fill="#e6edf3" font-weight="600">29/30 days</tspan></text><animate attributeName="opacity" from="0" to="1" begin="3.47s" dur="0.25s" fill="freeze"/></g>
    <g opacity="0"><text x="20" y="276" xml:space="preserve"><tspan fill="#22d3ee">$ </tspan></text><animate attributeName="opacity" from="0" to="1" begin="3.59s" dur="0.1s" fill="freeze"/></g>
    <rect x="35.8" y="264" width="7.9" height="15" fill="#22d3ee" opacity="0"><animate attributeName="opacity" values="1;0" keyTimes="0;0.5" calcMode="discrete" begin="3.69s" dur="1.06s" repeatCount="indefinite"/></rect>
  </g>
</svg>
