<svg xmlns="http://www.w3.org/2000/svg" width="620" height="296" viewBox="0 0 620 296" role="img" aria-label="muhammedozel son 30 gün katkı grafiği">
  <defs>
    <clipPath id="card"><rect x="0.5" y="0.5" width="619" height="295" rx="10"/></clipPath>
    <clipPath id="type1"><rect x="20" y="47" width="0" height="21"><animate attributeName="width" values="4.0;11.9;19.8;27.7;35.6;43.5;51.4;59.3;67.2;75.1;83.0;90.9;98.8;106.7;114.6;122.5;130.4;138.3;146.2;154.1;162.0;169.9;177.8;185.7;193.6;201.5" calcMode="discrete" begin="0.40s" dur="1.13s" fill="freeze"/></rect></clipPath>
  </defs>
  <g clip-path="url(#card)">
    <rect width="620" height="296" fill="#0d1117"/>
    <rect width="620" height="34" fill="#111823"/>
    <line x1="0" y1="34" x2="620" y2="34" stroke="#1c2530" stroke-width="1"/>
    <circle cx="25" cy="17" r="5.5" fill="#ff5f56"/><circle cx="43" cy="17" r="5.5" fill="#ffbd2e"/><circle cx="61" cy="17" r="5.5" fill="#27c93f"/>
    <text x="78" y="21" fill="#4d5a6a" font-size="11" font-family="Menlo, Consolas, 'DejaVu Sans Mono', 'Liberation Mono', monospace">muhammedozel@github ~ activity</text>
  </g>
  <rect x="0.5" y="0.5" width="619" height="295" rx="10" fill="none" stroke="#1c2530" stroke-width="1"/>
  <g font-family="Menlo, Consolas, 'DejaVu Sans Mono', 'Liberation Mono', monospace" font-size="13">
    <g clip-path="url(#type1)"><text x="20" y="63" xml:space="preserve"><tspan fill="#22d3ee">$ </tspan><tspan fill="#22d3ee">git activity --last 30d</tspan></text></g>
    <g>
        <line x1="22" y1="166.0" x2="598" y2="166.0" stroke="#1c2530" stroke-width="1" stroke-dasharray="3 5" opacity="0.6"/>
        <line x1="22" y1="141.0" x2="598" y2="141.0" stroke="#1c2530" stroke-width="1" stroke-dasharray="3 5" opacity="0.6"/>
        <line x1="22" y1="116.0" x2="598" y2="116.0" stroke="#1c2530" stroke-width="1" stroke-dasharray="3 5" opacity="0.6"/>
        <line x1="22" y1="191.0" x2="598" y2="191.0" stroke="#1c2530" stroke-width="1"/>
        <path d="M22.0 181.1 L41.9 187.7 L61.7 156.0 L81.6 156.7 L101.4 161.8 L121.3 166.5 L141.2 91.0 L161.0 100.1 L180.9 187.4 L200.8 189.5 L220.6 147.9 L240.5 175.3 L260.3 189.9 L280.2 188.8 L300.1 163.6 L319.9 183.3 L339.8 181.5 L359.7 181.9 L379.5 187.7 L399.4 185.9 L419.2 182.6 L439.1 156.3 L459.0 185.5 L478.8 183.3 L498.7 185.9 L518.6 189.9 L538.4 187.7 L558.3 163.3 L578.1 180.1 L598.0 184.1 L598.0 191.0 L22.0 191.0 Z" fill="#0891B2" opacity="0">
          <animate attributeName="opacity" from="0" to="0.16" begin="2.57s" dur="0.5s" fill="freeze"/>
        </path>
        <path d="M22.0 181.1 L41.9 187.7 L61.7 156.0 L81.6 156.7 L101.4 161.8 L121.3 166.5 L141.2 91.0 L161.0 100.1 L180.9 187.4 L200.8 189.5 L220.6 147.9 L240.5 175.3 L260.3 189.9 L280.2 188.8 L300.1 163.6 L319.9 183.3 L339.8 181.5 L359.7 181.9 L379.5 187.7 L399.4 185.9 L419.2 182.6 L439.1 156.3 L459.0 185.5 L478.8 183.3 L498.7 185.9 L518.6 189.9 L538.4 187.7 L558.3 163.3 L578.1 180.1 L598.0 184.1" fill="none" stroke="#22d3ee" stroke-width="2" stroke-linejoin="round" stroke-linecap="round" stroke-dasharray="840" stroke-dashoffset="840">
          <animate attributeName="stroke-dashoffset" from="840" to="0" begin="1.67s" dur="1.4s" fill="freeze"/>
        </path>
        <circle cx="141.2" cy="91.0" r="3.5" fill="#22d3ee" opacity="0">
          <animate attributeName="opacity" from="0" to="1" begin="3.07s" dur="0.3s" fill="freeze"/>
        </circle>
        <g opacity="0">
          <text x="22.0" y="173.1" fill="#8b949e" font-size="8.5" text-anchor="middle">27</text>
          <text x="41.9" y="168.7" fill="#8b949e" font-size="8.5" text-anchor="middle">9</text>
          <text x="61.7" y="148.0" fill="#8b949e" font-size="8.5" text-anchor="middle">96</text>
          <text x="81.6" y="137.7" fill="#8b949e" font-size="8.5" text-anchor="middle">94</text>
          <text x="101.4" y="153.8" fill="#8b949e" font-size="8.5" text-anchor="middle">80</text>
          <text x="121.3" y="147.5" fill="#8b949e" font-size="8.5" text-anchor="middle">67</text>
          <text x="141.2" y="83.0" fill="#8b949e" font-size="8.5" text-anchor="middle">274</text>
          <text x="161.0" y="81.1" fill="#8b949e" font-size="8.5" text-anchor="middle">249</text>
          <text x="180.9" y="179.4" fill="#8b949e" font-size="8.5" text-anchor="middle">10</text>
          <text x="200.8" y="170.5" fill="#8b949e" font-size="8.5" text-anchor="middle">4</text>
          <text x="220.6" y="139.9" fill="#8b949e" font-size="8.5" text-anchor="middle">118</text>
          <text x="240.5" y="156.3" fill="#8b949e" font-size="8.5" text-anchor="middle">43</text>
          <text x="260.3" y="181.9" fill="#8b949e" font-size="8.5" text-anchor="middle">3</text>
          <text x="280.2" y="169.8" fill="#8b949e" font-size="8.5" text-anchor="middle">6</text>
          <text x="300.1" y="155.6" fill="#8b949e" font-size="8.5" text-anchor="middle">75</text>
          <text x="319.9" y="164.3" fill="#8b949e" font-size="8.5" text-anchor="middle">21</text>
          <text x="339.8" y="173.5" fill="#8b949e" font-size="8.5" text-anchor="middle">26</text>
          <text x="359.7" y="162.9" fill="#8b949e" font-size="8.5" text-anchor="middle">25</text>
          <text x="379.5" y="179.7" fill="#8b949e" font-size="8.5" text-anchor="middle">9</text>
          <text x="399.4" y="166.9" fill="#8b949e" font-size="8.5" text-anchor="middle">14</text>
          <text x="419.2" y="174.6" fill="#8b949e" font-size="8.5" text-anchor="middle">23</text>
          <text x="439.1" y="137.3" fill="#8b949e" font-size="8.5" text-anchor="middle">95</text>
          <text x="459.0" y="177.5" fill="#8b949e" font-size="8.5" text-anchor="middle">15</text>
          <text x="478.8" y="164.3" fill="#8b949e" font-size="8.5" text-anchor="middle">21</text>
          <text x="498.7" y="177.9" fill="#8b949e" font-size="8.5" text-anchor="middle">14</text>
          <text x="518.6" y="170.9" fill="#8b949e" font-size="8.5" text-anchor="middle">3</text>
          <text x="538.4" y="179.7" fill="#8b949e" font-size="8.5" text-anchor="middle">9</text>
          <text x="558.3" y="144.3" fill="#8b949e" font-size="8.5" text-anchor="middle">76</text>
          <text x="578.1" y="172.1" fill="#8b949e" font-size="8.5" text-anchor="middle">30</text>
          <text x="598.0" y="165.1" fill="#8b949e" font-size="8.5" text-anchor="middle">19</text>
          <animate attributeName="opacity" from="0" to="1" begin="3.07s" dur="0.4s" fill="freeze"/>
        </g>
        <text x="22.0" y="210.0" fill="#6e7681" font-size="11" text-anchor="start">Jun 24</text>
        <text x="319.9" y="210.0" fill="#6e7681" font-size="11" text-anchor="middle">Jul 9</text>
        <text x="598.0" y="210.0" fill="#6e7681" font-size="11" text-anchor="end">Jul 23</text>
      </g>
    <g opacity="0"><text x="20" y="234" xml:space="preserve"><tspan fill="#8b949e">max: </tspan><tspan fill="#e6edf3" font-weight="600">274/day</tspan><tspan fill="#8b949e">   </tspan><tspan fill="#8b949e">avg: </tspan><tspan fill="#e6edf3" font-weight="600">51.8/day</tspan><tspan fill="#8b949e">   </tspan><tspan fill="#8b949e">active: </tspan><tspan fill="#e6edf3" font-weight="600">30/30 days</tspan></text><animate attributeName="opacity" from="0" to="1" begin="3.47s" dur="0.25s" fill="freeze"/></g>
    <g opacity="0"><text x="20" y="276" xml:space="preserve"><tspan fill="#22d3ee">$ </tspan></text><animate attributeName="opacity" from="0" to="1" begin="3.59s" dur="0.1s" fill="freeze"/></g>
    <rect x="35.8" y="264" width="7.9" height="15" fill="#22d3ee" opacity="0"><animate attributeName="opacity" values="1;0" keyTimes="0;0.5" calcMode="discrete" begin="3.69s" dur="1.06s" repeatCount="indefinite"/></rect>
  </g>
</svg>
